<svg xmlns="http://www.w3.org/2000/svg" class="graphdiagram" viewBox="-5738.800666078093 138.60856002537844 3038.750037718559 1669.6873158002763"><g class="layer relationships"><g class="related-pair"><g class="relationship" transform="translate(-4287.385771311523,608.0272037760365) rotate(0)"><path class="relationship" d="M 173.37680882906966 4 L 1222.5122454490877 4 L 1222.5122454490877 16 L 1254.5122454490877 0 L 1222.5122454490877 -16 L 1222.5122454490877 -4 L 173.37680882906966 -4 Z" fill="rgb(0, 0, 0)" stroke="rgb(51, 51, 51)" stroke-width="0px"/></g></g><g class="related-pair"><g class="relationship" transform="translate(-2860.962077110985,608.0272037760365) rotate(90)"><path class="relationship" d="M 171.91144875145068 4 L 528.4039396251285 4 L 528.4039396251285 16 L 560.4039396251285 0 L 528.4039396251285 -16 L 528.4039396251285 -4 L 171.91144875145068 -4 Z" fill="rgb(0, 0, 0)" stroke="rgb(51, 51, 51)" stroke-width="0px"/></g></g></g><g class="layer nodes"><circle class="node node-id-0" r="158.37680882906966" fill="rgb(255, 255, 255)" stroke="rgb(0, 0, 0)" stroke-width="8px" cx="-4287.385771311523" cy="608.0272037760365"/><g class="caption"><text class="caption node" text-anchor="middle" alignment-baseline="central" x="-4287.385771311523" y="558.0272037760365" fill="rgb(51, 51, 51)" font-size="50px" font-family="&quot;Gill Sans&quot;, &quot;Gill Sans MT&quot;, Calibri, sans-serif">Event</text><text class="caption node" text-anchor="middle" alignment-baseline="central" x="-4287.385771311523" y="608.0272037760365" fill="rgb(51, 51, 51)" font-size="50px" font-family="&quot;Gill Sans&quot;, &quot;Gill Sans MT&quot;, Calibri, sans-serif">Registration</text><text class="caption node" text-anchor="middle" alignment-baseline="central" x="-4287.385771311523" y="658.0272037760365" fill="rgb(51, 51, 51)" font-size="50px" font-family="&quot;Gill Sans&quot;, &quot;Gill Sans MT&quot;, Calibri, sans-serif">Mechanism</text></g><circle class="node node-id-1" r="156.91144875145068" fill="rgb(255, 255, 255)" stroke="rgb(0, 0, 0)" stroke-width="8px" cx="-2860.962077110985" cy="608.0272037760365"/><g class="caption"><text class="caption node" text-anchor="middle" alignment-baseline="central" x="-2860.962077110985" y="558.0272037760365" fill="rgb(51, 51, 51)" font-size="50px" font-family="&quot;Gill Sans&quot;, &quot;Gill Sans MT&quot;, Calibri, sans-serif">Sysmon</text><text class="caption node" text-anchor="middle" alignment-baseline="central" x="-2860.962077110985" y="608.0272037760365" fill="rgb(51, 51, 51)" font-size="50px" font-family="&quot;Gill Sans&quot;, &quot;Gill Sans MT&quot;, Calibri, sans-serif">Service</text><text class="caption node" text-anchor="middle" alignment-baseline="central" x="-2860.962077110985" y="658.0272037760365" fill="rgb(51, 51, 51)" font-size="50px" font-family="&quot;Gill Sans&quot;, &quot;Gill Sans MT&quot;, Calibri, sans-serif">Binary</text></g><circle class="node node-id-2" r="156.91144875145068" fill="rgb(255, 255, 255)" stroke="rgb(0, 0, 0)" stroke-width="8px" cx="-2860.962077110985" cy="1340.3425921526157"/><g class="caption"><text class="caption node" text-anchor="middle" alignment-baseline="central" x="-2860.962077110985" y="1290.3425921526157" fill="rgb(51, 51, 51)" font-size="50px" font-family="&quot;Gill Sans&quot;, &quot;Gill Sans MT&quot;, Calibri, sans-serif">Sysmon</text><text class="caption node" text-anchor="middle" alignment-baseline="central" x="-2860.962077110985" y="1340.3425921526157" fill="rgb(51, 51, 51)" font-size="50px" font-family="&quot;Gill Sans&quot;, &quot;Gill Sans MT&quot;, Calibri, sans-serif">Event ID</text><text class="caption node" text-anchor="middle" alignment-baseline="central" x="-2860.962077110985" y="1390.3425921526157" fill="rgb(51, 51, 51)" font-size="50px" font-family="&quot;Gill Sans&quot;, &quot;Gill Sans MT&quot;, Calibri, sans-serif">3</text></g></g><g class="layer properties"><g class="speech-bubble node-speech-bubble" transform="translate(-4445.762580140593,608.0272037760365) "><path class="speech-bubble-outline" transform="scale(-1,1) " d="M 0 0 L 20 -10 L 20 -75 A 10 10 0 0 1 30 -85 L 1281.5380859375 -85 A 10 10 0 0 1 1291.5380859375 -75 L 1291.5380859375 75 A 10 10 0 0 1 1281.5380859375 85 L 30 85 A 10 10 0 0 1 20 75 L 20 10 Z" fill="rgb(255, 255, 255)" stroke="rgb(0, 0, 0)" stroke-width="3px"/><text class="speech-bubble-content property-key" x="-941.8408203125" y="-50" alignment-baseline="central" text-anchor="end" font-size="50px" font-family="&quot;Gill Sans&quot;, &quot;Gill Sans MT&quot;, Calibri, sans-serif" xml:space="preserve">Logging Session: </text><text class="speech-bubble-content property-value" x="-941.8408203125" y="-50" alignment-baseline="central" font-size="50px" font-family="&quot;Gill Sans&quot;, &quot;Gill Sans MT&quot;, Calibri, sans-serif">NT Kernel</text><text class="speech-bubble-content property-key" x="-941.8408203125" y="0" alignment-baseline="central" text-anchor="end" font-size="50px" font-family="&quot;Gill Sans&quot;, &quot;Gill Sans MT&quot;, Calibri, sans-serif" xml:space="preserve">Function: </text><text class="speech-bubble-content property-value" x="-941.8408203125" y="0" alignment-baseline="central" font-size="50px" font-family="&quot;Gill Sans&quot;, &quot;Gill Sans MT&quot;, Calibri, sans-serif">StartTrace</text><text class="speech-bubble-content property-key" x="-941.8408203125" y="50" alignment-baseline="central" text-anchor="end" font-size="50px" font-family="&quot;Gill Sans&quot;, &quot;Gill Sans MT&quot;, Calibri, sans-serif" xml:space="preserve">Flag: </text><text class="speech-bubble-content property-value" x="-941.8408203125" y="50" alignment-baseline="central" font-size="50px" font-family="&quot;Gill Sans&quot;, &quot;Gill Sans MT&quot;, Calibri, sans-serif">EVENT_TRACE_FLAG_NETWORK_TCPIP</text></g><g class="speech-bubble relationship-speech-bubble" transform="translate(-3589.4412441724444,608.0272037760365) "><path class="speech-bubble-outline" transform="scale(1,1) " d="M 0 0 L -10 20 L -463.4765625 20 A 10 10 0 0 0 -473.4765625 30 L -473.4765625 80 A 10 10 0 0 0 -463.4765625 90 L 463.4765625 90 A 10 10 0 0 0 473.4765625 80 L 473.4765625 30 A 10 10 0 0 0 463.4765625 20 L 10 20 Z" fill="rgb(255, 255, 255)" stroke="rgb(0, 0, 0)" stroke-width="3px"/><text class="speech-bubble-content property-key" x="-200.0732421875" y="55" alignment-baseline="central" text-anchor="end" font-size="50px" font-family="&quot;Gill Sans&quot;, &quot;Gill Sans MT&quot;, Calibri, sans-serif" xml:space="preserve">Description: </text><text class="speech-bubble-content property-value" x="-200.0732421875" y="55" alignment-baseline="central" font-size="50px" font-family="&quot;Gill Sans&quot;, &quot;Gill Sans MT&quot;, Calibri, sans-serif">Pulls the queued event data back</text></g></g><g class="layer overlay"><circle class="node overlay" r="162.37680882906966" stroke="none" fill="rgba(255, 255, 255, 0)" cx="-4287.385771311523" cy="608.0272037760365"/><circle class="node ring" r="167.37680882906966" fill="none" stroke="rgba(255, 255, 255, 0)" stroke-width="10px" cx="-4287.385771311523" cy="608.0272037760365"/><circle class="node overlay" r="160.91144875145068" stroke="none" fill="rgba(255, 255, 255, 0)" cx="-2860.962077110985" cy="608.0272037760365"/><circle class="node ring" r="165.91144875145068" fill="none" stroke="rgba(255, 255, 255, 0)" stroke-width="10px" cx="-2860.962077110985" cy="608.0272037760365"/><path class="relationship overlay" fill="rgba(255, 255, 255, 0)" stroke="rgba(255, 255, 255, 0)" stroke-width="10px" transform="translate(-4287.385771311523,608.0272037760365) rotate(0)" d="M 173.37680882906966 4 L 1222.5122454490877 4 L 1222.5122454490877 16 L 1254.5122454490877 0 L 1222.5122454490877 -16 L 1222.5122454490877 -4 L 173.37680882906966 -4 Z"/><circle class="node overlay" r="160.91144875145068" stroke="none" fill="rgba(255, 255, 255, 0)" cx="-2860.962077110985" cy="1340.3425921526157"/><circle class="node ring" r="165.91144875145068" fill="none" stroke="rgba(255, 255, 255, 0)" stroke-width="10px" cx="-2860.962077110985" cy="1340.3425921526157"/><path class="relationship overlay" fill="rgba(255, 255, 255, 0)" stroke="rgba(255, 255, 255, 0)" stroke-width="10px" transform="translate(-2860.962077110985,608.0272037760365) rotate(90)" d="M 171.91144875145068 4 L 528.4039396251285 4 L 528.4039396251285 16 L 560.4039396251285 0 L 528.4039396251285 -16 L 528.4039396251285 -4 L 171.91144875145068 -4 Z"/></g></svg>