<svg xmlns="http://www.w3.org/2000/svg" class="graphdiagram" viewBox="-3542.322916954735 -637.1679277331605 4329.30615234375 2375.964447893415"><g class="layer relationships"><g class="related-pair"><g class="relationship" transform="translate(-2860.962077110985,608.0272037760365) rotate(90)"><path class="relationship" d="M 171.91144875145068 4 L 595.4029630626271 4 L 595.4029630626271 16 L 627.4029630626271 0 L 595.4029630626271 -16 L 595.4029630626271 -4 L 171.91144875145068 -4 Z" fill="rgb(0, 0, 0)" stroke="rgb(51, 51, 51)" stroke-width="0px"/></g></g><g class="related-pair"><g class="relationship" transform="translate(-2860.962077110985,608.0272037760365) rotate(-90)"><path class="relationship" d="M 171.91144875145068 4 L 619.398058032368 4 L 619.398058032368 16 L 651.398058032368 0 L 619.398058032368 -16 L 619.398058032368 -4 L 171.91144875145068 -4 Z" fill="rgb(0, 0, 0)" stroke="rgb(51, 51, 51)" stroke-width="0px"/><text class="type" text-anchor="middle" baseline-shift="30%" alignment-baseline="alphabetic" x="395.65475339190937" y="0" font-size="50px" font-family="&quot;Gill Sans&quot;, &quot;Gill Sans MT&quot;, Calibri, sans-serif">Create Subscription </text></g></g></g><g class="layer nodes"><circle class="node node-id-0" r="158.37680882906966" fill="rgb(255, 255, 255)" stroke="rgb(0, 0, 0)" stroke-width="8px" cx="-2860.962077110985" cy="-216.7476630854012"/><g class="caption"><text class="caption node" text-anchor="middle" alignment-baseline="central" x="-2860.962077110985" y="-266.7476630854012" fill="rgb(51, 51, 51)" font-size="50px" font-family="&quot;Gill Sans&quot;, &quot;Gill Sans MT&quot;, Calibri, sans-serif">Event</text><text class="caption node" text-anchor="middle" alignment-baseline="central" x="-2860.962077110985" y="-216.7476630854012" fill="rgb(51, 51, 51)" font-size="50px" font-family="&quot;Gill Sans&quot;, &quot;Gill Sans MT&quot;, Calibri, sans-serif">Registration</text><text class="caption node" text-anchor="middle" alignment-baseline="central" x="-2860.962077110985" y="-166.7476630854012" fill="rgb(51, 51, 51)" font-size="50px" font-family="&quot;Gill Sans&quot;, &quot;Gill Sans MT&quot;, Calibri, sans-serif">Mechanism</text></g><circle class="node node-id-1" r="156.91144875145068" fill="rgb(255, 255, 255)" stroke="rgb(0, 0, 0)" stroke-width="8px" cx="-2860.962077110985" cy="608.0272037760365"/><g class="caption"><text class="caption node" text-anchor="middle" alignment-baseline="central" x="-2860.962077110985" y="558.0272037760365" fill="rgb(51, 51, 51)" font-size="50px" font-family="&quot;Gill Sans&quot;, &quot;Gill Sans MT&quot;, Calibri, sans-serif">Sysmon</text><text class="caption node" text-anchor="middle" alignment-baseline="central" x="-2860.962077110985" y="608.0272037760365" fill="rgb(51, 51, 51)" font-size="50px" font-family="&quot;Gill Sans&quot;, &quot;Gill Sans MT&quot;, Calibri, sans-serif">Service</text><text class="caption node" text-anchor="middle" alignment-baseline="central" x="-2860.962077110985" y="658.0272037760365" fill="rgb(51, 51, 51)" font-size="50px" font-family="&quot;Gill Sans&quot;, &quot;Gill Sans MT&quot;, Calibri, sans-serif">Binary</text></g><circle class="node node-id-2" r="156.91144875145068" fill="rgb(255, 255, 255)" stroke="rgb(0, 0, 0)" stroke-width="8px" cx="-2860.962077110985" cy="1407.3416155901143"/><g class="caption"><text class="caption node" text-anchor="middle" alignment-baseline="central" x="-2860.962077110985" y="1357.3416155901143" fill="rgb(51, 51, 51)" font-size="50px" font-family="&quot;Gill Sans&quot;, &quot;Gill Sans MT&quot;, Calibri, sans-serif">Sysmon</text><text class="caption node" text-anchor="middle" alignment-baseline="central" x="-2860.962077110985" y="1407.3416155901143" fill="rgb(51, 51, 51)" font-size="50px" font-family="&quot;Gill Sans&quot;, &quot;Gill Sans MT&quot;, Calibri, sans-serif">Event ID</text><text class="caption node" text-anchor="middle" alignment-baseline="central" x="-2860.962077110985" y="1457.3416155901143" fill="rgb(51, 51, 51)" font-size="50px" font-family="&quot;Gill Sans&quot;, &quot;Gill Sans MT&quot;, Calibri, sans-serif">21</text></g><circle class="node node-id-10" r="156.91144875145068" fill="rgb(255, 255, 255)" stroke="rgb(0, 0, 0)" stroke-width="8px" cx="-2860.962077110985" cy="608.0272037760365"/><g class="caption"><text class="caption node" text-anchor="middle" alignment-baseline="central" x="-2860.962077110985" y="558.0272037760365" fill="rgb(51, 51, 51)" font-size="50px" font-family="&quot;Gill Sans&quot;, &quot;Gill Sans MT&quot;, Calibri, sans-serif">Sysmon</text><text class="caption node" text-anchor="middle" alignment-baseline="central" x="-2860.962077110985" y="608.0272037760365" fill="rgb(51, 51, 51)" font-size="50px" font-family="&quot;Gill Sans&quot;, &quot;Gill Sans MT&quot;, Calibri, sans-serif">Service</text><text class="caption node" text-anchor="middle" alignment-baseline="central" x="-2860.962077110985" y="658.0272037760365" fill="rgb(51, 51, 51)" font-size="50px" font-family="&quot;Gill Sans&quot;, &quot;Gill Sans MT&quot;, Calibri, sans-serif">Binary</text></g></g><g class="layer properties"><g class="speech-bubble node-speech-bubble" transform="translate(-2860.962077110985,-375.12447191447086) "><path class="speech-bubble-outline" transform="scale(1,-1) " d="M 0 0 L -10 20 L -669.86083984375 20 A 10 10 0 0 0 -679.86083984375 30 L -679.86083984375 80 A 10 10 0 0 0 -669.86083984375 90 L 669.86083984375 90 A 10 10 0 0 0 679.86083984375 80 L 679.86083984375 30 A 10 10 0 0 0 669.86083984375 20 L 10 20 Z" fill="rgb(255, 255, 255)" stroke="rgb(0, 0, 0)" stroke-width="3px"/><text class="speech-bubble-content property-key" x="-469.44580078125" y="-55" alignment-baseline="central" text-anchor="end" font-size="50px" font-family="&quot;Gill Sans&quot;, &quot;Gill Sans MT&quot;, Calibri, sans-serif" xml:space="preserve">Function: </text><text class="speech-bubble-content property-value" x="-469.44580078125" y="-55" alignment-baseline="central" font-size="50px" font-family="&quot;Gill Sans&quot;, &quot;Gill Sans MT&quot;, Calibri, sans-serif">ExecNotificationQueryAsyn OR ExecNotificationQuery</text></g><g class="speech-bubble relationship-speech-bubble" transform="translate(-2860.962077110985,212.3724503841271) "><path class="speech-bubble-outline" transform="scale(1,1) " d="M 0 0 L 20 -10 L 20 -25 A 10 10 0 0 1 30 -35 L 3834.4189453125 -35 A 10 10 0 0 1 3844.4189453125 -25 L 3844.4189453125 25 A 10 10 0 0 1 3834.4189453125 35 L 30 35 A 10 10 0 0 1 20 25 L 20 10 Z" fill="rgb(255, 255, 255)" stroke="rgb(0, 0, 0)" stroke-width="3px"/><text class="speech-bubble-content property-key" x="304.853515625" y="0" alignment-baseline="central" text-anchor="end" font-size="50px" font-family="&quot;Gill Sans&quot;, &quot;Gill Sans MT&quot;, Calibri, sans-serif" xml:space="preserve">Subscription: </text><text class="speech-bubble-content property-value" x="304.853515625" y="0" alignment-baseline="central" font-size="50px" font-family="&quot;Gill Sans&quot;, &quot;Gill Sans MT&quot;, Calibri, sans-serif">"SELECT * FROM __InstanceOperationEvent WITHIN 5 WHERE TargetInstance ISA __FilterToConsumerBinding" Subscription within the "ROOT\\subscription" namespace</text></g></g><g class="layer overlay"><circle class="node overlay" r="162.37680882906966" stroke="none" fill="rgba(255, 255, 255, 0)" cx="-2860.962077110985" cy="-216.7476630854012"/><circle class="node ring" r="167.37680882906966" fill="none" stroke="rgba(255, 255, 255, 0)" stroke-width="10px" cx="-2860.962077110985" cy="-216.7476630854012"/><circle class="node overlay" r="160.91144875145068" stroke="none" fill="rgba(255, 255, 255, 0)" cx="-2860.962077110985" cy="608.0272037760365"/><circle class="node ring" r="165.91144875145068" fill="none" stroke="rgba(255, 255, 255, 0)" stroke-width="10px" cx="-2860.962077110985" cy="608.0272037760365"/><path class="relationship overlay" fill="rgba(255, 255, 255, 0)" stroke="rgba(255, 255, 255, 0)" stroke-width="10px" transform="translate(-2860.962077110985,608.0272037760365) rotate(90)" d="M 171.91144875145068 4 L 595.4029630626271 4 L 595.4029630626271 16 L 627.4029630626271 0 L 595.4029630626271 -16 L 595.4029630626271 -4 L 171.91144875145068 -4 Z"/><circle class="node overlay" r="160.91144875145068" stroke="none" fill="rgba(255, 255, 255, 0)" cx="-2860.962077110985" cy="1407.3416155901143"/><circle class="node ring" r="165.91144875145068" fill="none" stroke="rgba(255, 255, 255, 0)" stroke-width="10px" cx="-2860.962077110985" cy="1407.3416155901143"/><circle class="node overlay" r="160.91144875145068" stroke="none" fill="rgba(255, 255, 255, 0)" cx="-2860.962077110985" cy="608.0272037760365"/><circle class="node ring" r="165.91144875145068" fill="none" stroke="rgba(255, 255, 255, 0)" stroke-width="10px" cx="-2860.962077110985" cy="608.0272037760365"/><path class="relationship overlay" fill="rgba(255, 255, 255, 0)" stroke="rgba(255, 255, 255, 0)" stroke-width="10px" transform="translate(-2860.962077110985,608.0272037760365) rotate(-90)" d="M 171.91144875145068 4 L 619.398058032368 4 L 619.398058032368 16 L 651.398058032368 0 L 619.398058032368 -16 L 619.398058032368 -4 L 171.91144875145068 -4 Z"/></g></svg>