<svg xmlns="http://www.w3.org/2000/svg" class="graphdiagram" viewBox="-5165.139101812565 833.1977582282196 3698.2944488616245 2137.526136812284"><g class="layer relationships"><g class="related-pair"><g class="relationship" transform="translate(-3280.48087593911,995.5745670572893) rotate(180)"><path class="relationship" d="M 173.37680882906966 4 L 808.2031864074839 4 L 808.2031864074839 16 L 840.2031864074839 0 L 808.2031864074839 -16 L 808.2031864074839 -4 L 173.37680882906966 -4 Z" fill="rgb(0, 0, 0)" stroke="rgb(51, 51, 51)" stroke-width="0px"/></g></g><g class="related-pair"><g class="relationship" transform="translate(-3280.48087593911,1981.447775878906) rotate(-90)"><path class="relationship" d="M 171.91144875145068 4 L 802.6293774414063 4 L 802.6293774414063 16 L 834.6293774414063 0 L 802.6293774414063 -16 L 802.6293774414063 -4 L 171.91144875145068 -4 Z" fill="rgb(0, 0, 0)" stroke="rgb(51, 51, 51)" stroke-width="0px"/></g></g><g class="related-pair"><g class="relationship" transform="translate(-3280.48087593911,1981.447775878906) rotate(90)"><path class="relationship" d="M 171.91144875145068 4 L 624.4532216586967 4 L 624.4532216586967 16 L 656.4532216586967 0 L 624.4532216586967 -16 L 624.4532216586967 -4 L 171.91144875145068 -4 Z" fill="rgb(0, 0, 0)" stroke="rgb(51, 51, 51)" stroke-width="0px"/></g></g></g><g class="layer nodes"><circle class="node node-id-0" r="74.89078140343551" fill="rgb(255, 255, 255)" stroke="rgb(0, 0, 0)" stroke-width="8px" cx="-4210.57484375003" cy="995.5745670572893"/><circle class="node node-id-4" r="50" fill="rgb(255, 255, 255)" stroke="rgb(0, 0, 0)" stroke-width="8px" cx="-3280.48087593911" cy="1081.8183984374996"/><circle class="node node-id-5" r="156.91144875145068" fill="rgb(255, 255, 255)" stroke="rgb(0, 0, 0)" stroke-width="8px" cx="-3280.48087593911" cy="2809.8124462890532"/><circle class="node node-id-11" r="158.37680882906966" fill="rgb(255, 255, 255)" stroke="rgb(0, 0, 0)" stroke-width="8px" cx="-3280.48087593911" cy="995.5745670572893"/><g class="caption"><text class="caption node" text-anchor="middle" alignment-baseline="central" x="-4210.57484375003" y="995.5745670572893" fill="rgb(51, 51, 51)" font-size="50px" font-family="&quot;Gill Sans&quot;, &quot;Gill Sans MT&quot;, Calibri, sans-serif">API's</text></g><g class="caption"><text class="caption node" text-anchor="middle" alignment-baseline="central" x="-3280.48087593911" y="2759.8124462890532" fill="rgb(51, 51, 51)" font-size="50px" font-family="&quot;Gill Sans&quot;, &quot;Gill Sans MT&quot;, Calibri, sans-serif">Sysmon</text><text class="caption node" text-anchor="middle" alignment-baseline="central" x="-3280.48087593911" y="2809.8124462890532" fill="rgb(51, 51, 51)" font-size="50px" font-family="&quot;Gill Sans&quot;, &quot;Gill Sans MT&quot;, Calibri, sans-serif">Event ID</text><text class="caption node" text-anchor="middle" alignment-baseline="central" x="-3280.48087593911" y="2859.8124462890532" fill="rgb(51, 51, 51)" font-size="50px" font-family="&quot;Gill Sans&quot;, &quot;Gill Sans MT&quot;, Calibri, sans-serif">22</text></g><circle class="node node-id-12" r="156.91144875145068" fill="rgb(255, 255, 255)" stroke="rgb(0, 0, 0)" stroke-width="8px" cx="-3280.48087593911" cy="1981.447775878906"/><g class="caption"><text class="caption node" text-anchor="middle" alignment-baseline="central" x="-3280.48087593911" y="945.5745670572893" fill="rgb(51, 51, 51)" font-size="50px" font-family="&quot;Gill Sans&quot;, &quot;Gill Sans MT&quot;, Calibri, sans-serif">Event</text><text class="caption node" text-anchor="middle" alignment-baseline="central" x="-3280.48087593911" y="995.5745670572893" fill="rgb(51, 51, 51)" font-size="50px" font-family="&quot;Gill Sans&quot;, &quot;Gill Sans MT&quot;, Calibri, sans-serif">Registration</text><text class="caption node" text-anchor="middle" alignment-baseline="central" x="-3280.48087593911" y="1045.5745670572892" fill="rgb(51, 51, 51)" font-size="50px" font-family="&quot;Gill Sans&quot;, &quot;Gill Sans MT&quot;, Calibri, sans-serif">Mechanism</text></g><g class="caption"><text class="caption node" text-anchor="middle" alignment-baseline="central" x="-3280.48087593911" y="1931.447775878906" fill="rgb(51, 51, 51)" font-size="50px" font-family="&quot;Gill Sans&quot;, &quot;Gill Sans MT&quot;, Calibri, sans-serif">Sysmon</text><text class="caption node" text-anchor="middle" alignment-baseline="central" x="-3280.48087593911" y="1981.447775878906" fill="rgb(51, 51, 51)" font-size="50px" font-family="&quot;Gill Sans&quot;, &quot;Gill Sans MT&quot;, Calibri, sans-serif">Service</text><text class="caption node" text-anchor="middle" alignment-baseline="central" x="-3280.48087593911" y="2031.447775878906" fill="rgb(51, 51, 51)" font-size="50px" font-family="&quot;Gill Sans&quot;, &quot;Gill Sans MT&quot;, Calibri, sans-serif">Binary</text></g></g><g class="layer properties"><g class="speech-bubble node-speech-bubble" transform="translate(-4285.465625153465,995.5745670572893) "><path class="speech-bubble-outline" transform="scale(-1,1) " d="M 0 0 L 20 -10 L 20 -75 A 10 10 0 0 1 30 -85 L 476.7529296875 -85 A 10 10 0 0 1 486.7529296875 -75 L 486.7529296875 75 A 10 10 0 0 1 476.7529296875 85 L 30 85 A 10 10 0 0 1 20 75 L 20 10 Z" fill="rgb(255, 255, 255)" stroke="rgb(0, 0, 0)" stroke-width="3px"/><text class="speech-bubble-content property-key" x="-323.2373046875" y="-50" alignment-baseline="central" text-anchor="end" font-size="50px" font-family="&quot;Gill Sans&quot;, &quot;Gill Sans MT&quot;, Calibri, sans-serif" xml:space="preserve">API(1): </text><text class="speech-bubble-content property-value" x="-323.2373046875" y="-50" alignment-baseline="central" font-size="50px" font-family="&quot;Gill Sans&quot;, &quot;Gill Sans MT&quot;, Calibri, sans-serif">DnsQueryEx</text><text class="speech-bubble-content property-key" x="-323.2373046875" y="0" alignment-baseline="central" text-anchor="end" font-size="50px" font-family="&quot;Gill Sans&quot;, &quot;Gill Sans MT&quot;, Calibri, sans-serif" xml:space="preserve">API(2): </text><text class="speech-bubble-content property-value" x="-323.2373046875" y="0" alignment-baseline="central" font-size="50px" font-family="&quot;Gill Sans&quot;, &quot;Gill Sans MT&quot;, Calibri, sans-serif">DnsQuery_A</text><text class="speech-bubble-content property-key" x="-323.2373046875" y="50" alignment-baseline="central" text-anchor="end" font-size="50px" font-family="&quot;Gill Sans&quot;, &quot;Gill Sans MT&quot;, Calibri, sans-serif" xml:space="preserve">API(3): </text><text class="speech-bubble-content property-value" x="-323.2373046875" y="50" alignment-baseline="central" font-size="50px" font-family="&quot;Gill Sans&quot;, &quot;Gill Sans MT&quot;, Calibri, sans-serif">DnsQuery_W</text></g><g class="speech-bubble node-speech-bubble" transform="translate(-3122.10406711004,995.5745670572893) "><path class="speech-bubble-outline" transform="scale(1,1) " d="M 0 0 L 20 -10 L 20 -50 A 10 10 0 0 1 30 -60 L 1252.3388671875 -60 A 10 10 0 0 1 1262.3388671875 -50 L 1262.3388671875 50 A 10 10 0 0 1 1252.3388671875 60 L 30 60 A 10 10 0 0 1 20 50 L 20 10 Z" fill="rgb(255, 255, 255)" stroke="rgb(0, 0, 0)" stroke-width="3px"/><text class="speech-bubble-content property-key" x="279.8291015625" y="-25" alignment-baseline="central" text-anchor="end" font-size="50px" font-family="&quot;Gill Sans&quot;, &quot;Gill Sans MT&quot;, Calibri, sans-serif" xml:space="preserve">Mechanism: </text><text class="speech-bubble-content property-key" x="279.8291015625" y="25" alignment-baseline="central" text-anchor="end" font-size="50px" font-family="&quot;Gill Sans&quot;, &quot;Gill Sans MT&quot;, Calibri, sans-serif" xml:space="preserve">Function: </text><text class="speech-bubble-content property-value" x="279.8291015625" y="-25" alignment-baseline="central" font-size="50px" font-family="&quot;Gill Sans&quot;, &quot;Gill Sans MT&quot;, Calibri, sans-serif">Microsoft-Windows-DNS-Client ETW Provider</text><text class="speech-bubble-content property-value" x="279.8291015625" y="25" alignment-baseline="central" font-size="50px" font-family="&quot;Gill Sans&quot;, &quot;Gill Sans MT&quot;, Calibri, sans-serif">Collects DNS Queries within ETW.</text></g></g><g class="layer overlay"><circle class="node overlay" r="78.89078140343551" stroke="none" fill="rgba(255, 255, 255, 0)" cx="-4210.57484375003" cy="995.5745670572893"/><circle class="node overlay" r="54" stroke="none" fill="rgba(255, 255, 255, 0)" cx="-3280.48087593911" cy="1081.8183984374996"/><circle class="node overlay" r="160.91144875145068" stroke="none" fill="rgba(255, 255, 255, 0)" cx="-3280.48087593911" cy="2809.8124462890532"/><circle class="node overlay" r="162.37680882906966" stroke="none" fill="rgba(255, 255, 255, 0)" cx="-3280.48087593911" cy="995.5745670572893"/><circle class="node ring" r="83.89078140343551" fill="none" stroke="rgba(255, 255, 255, 0)" stroke-width="10px" cx="-4210.57484375003" cy="995.5745670572893"/><circle class="node ring" r="59" fill="none" stroke="rgba(255, 255, 255, 0)" stroke-width="10px" cx="-3280.48087593911" cy="1081.8183984374996"/><circle class="node ring" r="165.91144875145068" fill="none" stroke="rgba(255, 255, 255, 0)" stroke-width="10px" cx="-3280.48087593911" cy="2809.8124462890532"/><circle class="node ring" r="167.37680882906966" fill="none" stroke="rgba(255, 255, 255, 0)" stroke-width="10px" cx="-3280.48087593911" cy="995.5745670572893"/><path class="relationship overlay" fill="rgba(255, 255, 255, 0)" stroke="rgba(255, 255, 255, 0)" stroke-width="10px" transform="translate(-3280.48087593911,995.5745670572893) rotate(180)" d="M 173.37680882906966 4 L 808.2031864074839 4 L 808.2031864074839 16 L 840.2031864074839 0 L 808.2031864074839 -16 L 808.2031864074839 -4 L 173.37680882906966 -4 Z"/><path class="relationship overlay" fill="rgba(255, 255, 255, 0)" stroke="rgba(255, 255, 255, 0)" stroke-width="10px" transform="translate(-3280.48087593911,1981.447775878906) rotate(-90)" d="M 171.91144875145068 4 L 802.6293774414063 4 L 802.6293774414063 16 L 834.6293774414063 0 L 802.6293774414063 -16 L 802.6293774414063 -4 L 171.91144875145068 -4 Z"/><circle class="node overlay" r="160.91144875145068" stroke="none" fill="rgba(255, 255, 255, 0)" cx="-3280.48087593911" cy="1981.447775878906"/><circle class="node ring" r="165.91144875145068" fill="none" stroke="rgba(255, 255, 255, 0)" stroke-width="10px" cx="-3280.48087593911" cy="1981.447775878906"/><path class="relationship overlay" fill="rgba(255, 255, 255, 0)" stroke="rgba(255, 255, 255, 0)" stroke-width="10px" transform="translate(-3280.48087593911,1981.447775878906) rotate(90)" d="M 171.91144875145068 4 L 624.4532216586967 4 L 624.4532216586967 16 L 656.4532216586967 0 L 624.4532216586967 -16 L 624.4532216586967 -4 L 171.91144875145068 -4 Z"/></g></svg>