<svg xmlns="http://www.w3.org/2000/svg" class="graphdiagram" viewBox="-4924.670703278465 540.7091870169088 5085.057072532576 2939.041915136388"><g class="layer relationships"><g class="related-pair"><g class="relationship" transform="translate(-3280.48087593911,1607.947084340115) rotate(-90)"><path class="relationship" d="M 141.30320022424445 4 L 406.99570845375604 4 L 406.99570845375604 16 L 438.99570845375604 0 L 406.99570845375604 -16 L 406.99570845375604 -4 L 141.30320022424445 -4 Z" fill="rgb(0, 0, 0)" stroke="rgb(51, 51, 51)" stroke-width="0px"/></g></g><g class="related-pair"><g class="relationship" transform="translate(-3280.48087593911,2314.694968261718) rotate(-90)"><path class="relationship" d="M 217.40897493085106 4 L 533.4446836973582 4 L 533.4446836973582 16 L 565.4446836973582 0 L 533.4446836973582 -16 L 533.4446836973582 -4 L 217.40897493085106 -4 Z" fill="rgb(0, 0, 0)" stroke="rgb(51, 51, 51)" stroke-width="0px"/></g></g><g class="related-pair"><g class="relationship" transform="translate(-3280.48087593911,2314.694968261718) rotate(0)"><path class="relationship" d="M 217.40897493085106 4 L 1501.367024843906 4 L 1501.367024843906 16 L 1533.367024843906 0 L 1501.367024843906 -16 L 1501.367024843906 -4 L 217.40897493085106 -4 Z" fill="rgb(0, 0, 0)" stroke="rgb(51, 51, 51)" stroke-width="0px"/></g></g><g class="related-pair"><g class="relationship" transform="translate(-1575.2024023437534,2314.694968261718) rotate(90)"><path class="relationship" d="M 171.91144875145068 4 L 598.8571718540179 4 L 598.8571718540179 16 L 630.8571718540179 0 L 598.8571718540179 -16 L 598.8571718540179 -4 L 171.91144875145068 -4 Z" fill="rgb(0, 0, 0)" stroke="rgb(51, 51, 51)" stroke-width="0px"/></g></g><g class="related-pair"><g class="relationship" transform="translate(-3280.48087593911,995.5745670572893) rotate(180)"><path class="relationship" d="M 173.37680882906966 4 L 808.2031864074839 4 L 808.2031864074839 16 L 840.2031864074839 0 L 808.2031864074839 -16 L 808.2031864074839 -4 L 173.37680882906966 -4 Z" fill="rgb(0, 0, 0)" stroke="rgb(51, 51, 51)" stroke-width="0px"/></g></g></g><g class="layer nodes"><circle class="node node-id-0" r="74.89078140343551" fill="rgb(255, 255, 255)" stroke="rgb(0, 0, 0)" stroke-width="8px" cx="-4210.57484375003" cy="995.5745670572893"/><circle class="node node-id-4" r="158.37680882906966" fill="rgb(255, 255, 255)" stroke="rgb(0, 0, 0)" stroke-width="8px" cx="-3280.48087593911" cy="995.5745670572893"/><circle class="node node-id-5" r="126.30320022424446" fill="rgb(255, 255, 255)" stroke="rgb(0, 0, 0)" stroke-width="8px" cx="-3280.48087593911" cy="1607.947084340115"/><circle class="node node-id-11" r="202.40897493085106" fill="rgb(255, 255, 255)" stroke="rgb(0, 0, 0)" stroke-width="8px" cx="-3280.48087593911" cy="2314.694968261718"/><circle class="node node-id-12" r="156.91144875145068" fill="rgb(255, 255, 255)" stroke="rgb(0, 0, 0)" stroke-width="8px" cx="-1575.2024023437534" cy="2314.694968261718"/><circle class="node node-id-13" r="156.91144875145068" fill="rgb(255, 255, 255)" stroke="rgb(0, 0, 0)" stroke-width="8px" cx="-1575.2024023437534" cy="3117.4635888671864"/><g class="caption"><text class="caption node" text-anchor="middle" alignment-baseline="central" x="-4210.57484375003" y="995.5745670572893" fill="rgb(51, 51, 51)" font-size="50px" font-family="&quot;Gill Sans&quot;, &quot;Gill Sans MT&quot;, Calibri, sans-serif">API's</text></g><g class="caption"><text class="caption node" text-anchor="middle" alignment-baseline="central" x="-3280.48087593911" y="945.5745670572893" fill="rgb(51, 51, 51)" font-size="50px" font-family="&quot;Gill Sans&quot;, &quot;Gill Sans MT&quot;, Calibri, sans-serif">Event</text><text class="caption node" text-anchor="middle" alignment-baseline="central" x="-3280.48087593911" y="995.5745670572893" fill="rgb(51, 51, 51)" font-size="50px" font-family="&quot;Gill Sans&quot;, &quot;Gill Sans MT&quot;, Calibri, sans-serif">Registration</text><text class="caption node" text-anchor="middle" alignment-baseline="central" x="-3280.48087593911" y="1045.5745670572892" fill="rgb(51, 51, 51)" font-size="50px" font-family="&quot;Gill Sans&quot;, &quot;Gill Sans MT&quot;, Calibri, sans-serif">Mechanism</text></g><g class="caption"><text class="caption node" text-anchor="middle" alignment-baseline="central" x="-3280.48087593911" y="1582.947084340115" fill="rgb(51, 51, 51)" font-size="50px" font-family="&quot;Gill Sans&quot;, &quot;Gill Sans MT&quot;, Calibri, sans-serif">Sysmon</text><text class="caption node" text-anchor="middle" alignment-baseline="central" x="-3280.48087593911" y="1632.947084340115" fill="rgb(51, 51, 51)" font-size="50px" font-family="&quot;Gill Sans&quot;, &quot;Gill Sans MT&quot;, Calibri, sans-serif">Driver</text></g><g class="caption"><text class="caption node" text-anchor="middle" alignment-baseline="central" x="-3280.48087593911" y="2264.694968261718" fill="rgb(51, 51, 51)" font-size="50px" font-family="&quot;Gill Sans&quot;, &quot;Gill Sans MT&quot;, Calibri, sans-serif">Input/Output</text><text class="caption node" text-anchor="middle" alignment-baseline="central" x="-3280.48087593911" y="2314.694968261718" fill="rgb(51, 51, 51)" font-size="50px" font-family="&quot;Gill Sans&quot;, &quot;Gill Sans MT&quot;, Calibri, sans-serif">Control</text><text class="caption node" text-anchor="middle" alignment-baseline="central" x="-3280.48087593911" y="2364.694968261718" fill="rgb(51, 51, 51)" font-size="50px" font-family="&quot;Gill Sans&quot;, &quot;Gill Sans MT&quot;, Calibri, sans-serif">Interface</text></g><g class="caption"><text class="caption node" text-anchor="middle" alignment-baseline="central" x="-1575.2024023437534" y="2264.694968261718" fill="rgb(51, 51, 51)" font-size="50px" font-family="&quot;Gill Sans&quot;, &quot;Gill Sans MT&quot;, Calibri, sans-serif">Sysmon</text><text class="caption node" text-anchor="middle" alignment-baseline="central" x="-1575.2024023437534" y="2314.694968261718" fill="rgb(51, 51, 51)" font-size="50px" font-family="&quot;Gill Sans&quot;, &quot;Gill Sans MT&quot;, Calibri, sans-serif">Service</text><text class="caption node" text-anchor="middle" alignment-baseline="central" x="-1575.2024023437534" y="2364.694968261718" fill="rgb(51, 51, 51)" font-size="50px" font-family="&quot;Gill Sans&quot;, &quot;Gill Sans MT&quot;, Calibri, sans-serif">Binary</text></g><g class="caption"><text class="caption node" text-anchor="middle" alignment-baseline="central" x="-1575.2024023437534" y="3067.4635888671864" fill="rgb(51, 51, 51)" font-size="50px" font-family="&quot;Gill Sans&quot;, &quot;Gill Sans MT&quot;, Calibri, sans-serif">Sysmon</text><text class="caption node" text-anchor="middle" alignment-baseline="central" x="-1575.2024023437534" y="3117.4635888671864" fill="rgb(51, 51, 51)" font-size="50px" font-family="&quot;Gill Sans&quot;, &quot;Gill Sans MT&quot;, Calibri, sans-serif">Event ID</text><text class="caption node" text-anchor="middle" alignment-baseline="central" x="-1575.2024023437534" y="3167.4635888671864" fill="rgb(51, 51, 51)" font-size="50px" font-family="&quot;Gill Sans&quot;, &quot;Gill Sans MT&quot;, Calibri, sans-serif">17</text></g></g><g class="layer properties"><g class="speech-bubble node-speech-bubble" transform="translate(-4285.465625153465,995.5745670572893) "><path class="speech-bubble-outline" transform="scale(-1,1) " d="M 0 0 L 20 -10 L 20 -50 A 10 10 0 0 1 30 -60 L 627.705078125 -60 A 10 10 0 0 1 637.705078125 -50 L 637.705078125 50 A 10 10 0 0 1 627.705078125 60 L 30 60 A 10 10 0 0 1 20 50 L 20 10 Z" fill="rgb(255, 255, 255)" stroke="rgb(0, 0, 0)" stroke-width="3px"/><text class="speech-bubble-content property-key" x="-474.189453125" y="-25" alignment-baseline="central" text-anchor="end" font-size="50px" font-family="&quot;Gill Sans&quot;, &quot;Gill Sans MT&quot;, Calibri, sans-serif" xml:space="preserve">API(1): </text><text class="speech-bubble-content property-value" x="-474.189453125" y="-25" alignment-baseline="central" font-size="50px" font-family="&quot;Gill Sans&quot;, &quot;Gill Sans MT&quot;, Calibri, sans-serif">CreateNamedPipeFile</text><text class="speech-bubble-content property-key" x="-474.189453125" y="25" alignment-baseline="central" text-anchor="end" font-size="50px" font-family="&quot;Gill Sans&quot;, &quot;Gill Sans MT&quot;, Calibri, sans-serif" xml:space="preserve">API(2): </text><text class="speech-bubble-content property-value" x="-474.189453125" y="25" alignment-baseline="central" font-size="50px" font-family="&quot;Gill Sans&quot;, &quot;Gill Sans MT&quot;, Calibri, sans-serif">CreateNamedPipe</text></g><g class="speech-bubble node-speech-bubble" transform="translate(-3168.491560433389,883.5852515515687) "><path class="speech-bubble-outline" transform="scale(1,-1) " d="M 0 0 L 30 20 L 3317.3779296875 20 A 10 10 0 0 1 3327.3779296875 30 L 3327.3779296875 130 A 10 10 0 0 1 3317.3779296875 140 L 30 140 A 10 10 0 0 1 20 130 L 20 30 Z" fill="rgb(255, 255, 255)" stroke="rgb(0, 0, 0)" stroke-width="3px"/><text class="speech-bubble-content property-key" x="279.8291015625" y="-105" alignment-baseline="central" text-anchor="end" font-size="50px" font-family="&quot;Gill Sans&quot;, &quot;Gill Sans MT&quot;, Calibri, sans-serif" xml:space="preserve">Mechanism: </text><text class="speech-bubble-content property-key" x="279.8291015625" y="-55" alignment-baseline="central" text-anchor="end" font-size="50px" font-family="&quot;Gill Sans&quot;, &quot;Gill Sans MT&quot;, Calibri, sans-serif" xml:space="preserve">Function: </text><text class="speech-bubble-content property-value" x="279.8291015625" y="-105" alignment-baseline="central" font-size="50px" font-family="&quot;Gill Sans&quot;, &quot;Gill Sans MT&quot;, Calibri, sans-serif">IoSetCompletionRoutineEx</text><text class="speech-bubble-content property-value" x="279.8291015625" y="-55" alignment-baseline="central" font-size="50px" font-family="&quot;Gill Sans&quot;, &quot;Gill Sans MT&quot;, Calibri, sans-serif">routine registers an IoCompletion routine, which is called when the next-lower-level driver has completed the requested operation for the given IRP.</text></g><g class="speech-bubble relationship-speech-bubble" transform="translate(-2421.0928760517313,2314.694968261718) "><path class="speech-bubble-outline" transform="scale(1,1) " d="M 0 0 L -10 20 L -463.4765625 20 A 10 10 0 0 0 -473.4765625 30 L -473.4765625 80 A 10 10 0 0 0 -463.4765625 90 L 463.4765625 90 A 10 10 0 0 0 473.4765625 80 L 473.4765625 30 A 10 10 0 0 0 463.4765625 20 L 10 20 Z" fill="rgb(255, 255, 255)" stroke="rgb(0, 0, 0)" stroke-width="3px"/><text class="speech-bubble-content property-key" x="-200.0732421875" y="55" alignment-baseline="central" text-anchor="end" font-size="50px" font-family="&quot;Gill Sans&quot;, &quot;Gill Sans MT&quot;, Calibri, sans-serif" xml:space="preserve">Description: </text><text class="speech-bubble-content property-value" x="-200.0732421875" y="55" alignment-baseline="central" font-size="50px" font-family="&quot;Gill Sans&quot;, &quot;Gill Sans MT&quot;, Calibri, sans-serif">Pulls the queued event data back</text></g></g><g class="layer overlay"><circle class="node overlay" r="78.89078140343551" stroke="none" fill="rgba(255, 255, 255, 0)" cx="-4210.57484375003" cy="995.5745670572893"/><circle class="node overlay" r="162.37680882906966" stroke="none" fill="rgba(255, 255, 255, 0)" cx="-3280.48087593911" cy="995.5745670572893"/><circle class="node overlay" r="130.30320022424445" stroke="none" fill="rgba(255, 255, 255, 0)" cx="-3280.48087593911" cy="1607.947084340115"/><circle class="node overlay" r="206.40897493085106" stroke="none" fill="rgba(255, 255, 255, 0)" cx="-3280.48087593911" cy="2314.694968261718"/><circle class="node overlay" r="160.91144875145068" stroke="none" fill="rgba(255, 255, 255, 0)" cx="-1575.2024023437534" cy="2314.694968261718"/><circle class="node overlay" r="160.91144875145068" stroke="none" fill="rgba(255, 255, 255, 0)" cx="-1575.2024023437534" cy="3117.4635888671864"/><circle class="node ring" r="83.89078140343551" fill="none" stroke="rgba(255, 255, 255, 0)" stroke-width="10px" cx="-4210.57484375003" cy="995.5745670572893"/><circle class="node ring" r="167.37680882906966" fill="none" stroke="rgba(255, 255, 255, 0)" stroke-width="10px" cx="-3280.48087593911" cy="995.5745670572893"/><circle class="node ring" r="135.30320022424445" fill="none" stroke="rgba(255, 255, 255, 0)" stroke-width="10px" cx="-3280.48087593911" cy="1607.947084340115"/><circle class="node ring" r="211.40897493085106" fill="none" stroke="rgba(255, 255, 255, 0)" stroke-width="10px" cx="-3280.48087593911" cy="2314.694968261718"/><circle class="node ring" r="165.91144875145068" fill="none" stroke="rgba(255, 255, 255, 0)" stroke-width="10px" cx="-1575.2024023437534" cy="2314.694968261718"/><circle class="node ring" r="165.91144875145068" fill="none" stroke="rgba(255, 255, 255, 0)" stroke-width="10px" cx="-1575.2024023437534" cy="3117.4635888671864"/><path class="relationship overlay" fill="rgba(255, 255, 255, 0)" stroke="rgba(255, 255, 255, 0)" stroke-width="10px" transform="translate(-3280.48087593911,1607.947084340115) rotate(-90)" d="M 141.30320022424445 4 L 406.99570845375604 4 L 406.99570845375604 16 L 438.99570845375604 0 L 406.99570845375604 -16 L 406.99570845375604 -4 L 141.30320022424445 -4 Z"/><path class="relationship overlay" fill="rgba(255, 255, 255, 0)" stroke="rgba(255, 255, 255, 0)" stroke-width="10px" transform="translate(-3280.48087593911,2314.694968261718) rotate(-90)" d="M 217.40897493085106 4 L 533.4446836973582 4 L 533.4446836973582 16 L 565.4446836973582 0 L 533.4446836973582 -16 L 533.4446836973582 -4 L 217.40897493085106 -4 Z"/><path class="relationship overlay" fill="rgba(255, 255, 255, 0)" stroke="rgba(255, 255, 255, 0)" stroke-width="10px" transform="translate(-3280.48087593911,2314.694968261718) rotate(0)" d="M 217.40897493085106 4 L 1501.367024843906 4 L 1501.367024843906 16 L 1533.367024843906 0 L 1501.367024843906 -16 L 1501.367024843906 -4 L 217.40897493085106 -4 Z"/><path class="relationship overlay" fill="rgba(255, 255, 255, 0)" stroke="rgba(255, 255, 255, 0)" stroke-width="10px" transform="translate(-1575.2024023437534,2314.694968261718) rotate(90)" d="M 171.91144875145068 4 L 598.8571718540179 4 L 598.8571718540179 16 L 630.8571718540179 0 L 598.8571718540179 -16 L 598.8571718540179 -4 L 171.91144875145068 -4 Z"/><path class="relationship overlay" fill="rgba(255, 255, 255, 0)" stroke="rgba(255, 255, 255, 0)" stroke-width="10px" transform="translate(-3280.48087593911,995.5745670572893) rotate(180)" d="M 173.37680882906966 4 L 808.2031864074839 4 L 808.2031864074839 16 L 840.2031864074839 0 L 808.2031864074839 -16 L 808.2031864074839 -4 L 173.37680882906966 -4 Z"/></g></svg>