<svg xmlns="http://www.w3.org/2000/svg" class="graphdiagram" viewBox="-4685.35698257534 444.90297363800437 5112.332463157576 2954.8064415035756"><g class="layer relationships"><g class="related-pair"><g class="relationship" transform="translate(-2860.962077110985,1539.835878285428) rotate(-90)"><path class="relationship" d="M 141.30320022424445 4 L 396.32786177407127 4 L 396.32786177407127 16 L 428.32786177407127 0 L 396.32786177407127 -16 L 396.32786177407127 -4 L 141.30320022424445 -4 Z" fill="rgb(0, 0, 0)" stroke="rgb(51, 51, 51)" stroke-width="0px"/></g></g><g class="related-pair"><g class="relationship" transform="translate(-2860.962077110985,2228.791159667966) rotate(-90)"><path class="relationship" d="M 217.40897493085106 4 L 515.6520811582936 4 L 515.6520811582936 16 L 547.6520811582936 0 L 515.6520811582936 -16 L 515.6520811582936 -4 L 217.40897493085106 -4 Z" fill="rgb(0, 0, 0)" stroke="rgb(51, 51, 51)" stroke-width="0px"/></g></g><g class="related-pair"><g class="relationship" transform="translate(-2860.962077110985,2228.791159667966) rotate(0)"><path class="relationship" d="M 217.40897493085106 4 L 1393.9180502345314 4 L 1393.9180502345314 16 L 1425.9180502345314 0 L 1393.9180502345314 -16 L 1393.9180502345314 -4 L 217.40897493085106 -4 Z" fill="rgb(0, 0, 0)" stroke="rgb(51, 51, 51)" stroke-width="0px"/></g></g><g class="related-pair"><g class="relationship" transform="translate(-1263.1325781250027,2228.791159667966) rotate(90)"><path class="relationship" d="M 171.91144875145068 4 L 566.35643943215 4 L 566.35643943215 16 L 598.35643943215 0 L 566.35643943215 -16 L 566.35643943215 -4 L 171.91144875145068 -4 Z" fill="rgb(0, 0, 0)" stroke="rgb(51, 51, 51)" stroke-width="0px"/></g></g><g class="related-pair"><g class="relationship" transform="translate(-2860.962077110985,938.131207682287) rotate(180)"><path class="relationship" d="M 173.37680882906966 4 L 898.9063114074847 4 L 898.9063114074847 16 L 930.9063114074847 0 L 898.9063114074847 -16 L 898.9063114074847 -4 L 173.37680882906966 -4 Z" fill="rgb(0, 0, 0)" stroke="rgb(51, 51, 51)" stroke-width="0px"/></g></g></g><g class="layer nodes"><circle class="node node-id-0" r="74.89078140343551" fill="rgb(255, 255, 255)" stroke="rgb(0, 0, 0)" stroke-width="8px" cx="-3881.759169921905" cy="938.131207682287"/><circle class="node node-id-4" r="158.37680882906966" fill="rgb(255, 255, 255)" stroke="rgb(0, 0, 0)" stroke-width="8px" cx="-2860.962077110985" cy="938.131207682287"/><circle class="node node-id-5" r="126.30320022424446" fill="rgb(255, 255, 255)" stroke="rgb(0, 0, 0)" stroke-width="8px" cx="-2860.962077110985" cy="1539.835878285428"/><circle class="node node-id-11" r="202.40897493085106" fill="rgb(255, 255, 255)" stroke="rgb(0, 0, 0)" stroke-width="8px" cx="-2860.962077110985" cy="2228.791159667966"/><circle class="node node-id-12" r="156.91144875145068" fill="rgb(255, 255, 255)" stroke="rgb(0, 0, 0)" stroke-width="8px" cx="-1263.1325781250027" cy="2228.791159667966"/><circle class="node node-id-13" r="156.91144875145068" fill="rgb(255, 255, 255)" stroke="rgb(0, 0, 0)" stroke-width="8px" cx="-1263.1325781250027" cy="2999.059047851567"/><g class="caption"><text class="caption node" text-anchor="middle" alignment-baseline="central" x="-3881.759169921905" y="938.131207682287" fill="rgb(51, 51, 51)" font-size="50px" font-family="&quot;Gill Sans&quot;, &quot;Gill Sans MT&quot;, Calibri, sans-serif">API's</text></g><g class="caption"><text class="caption node" text-anchor="middle" alignment-baseline="central" x="-2860.962077110985" y="888.131207682287" fill="rgb(51, 51, 51)" font-size="50px" font-family="&quot;Gill Sans&quot;, &quot;Gill Sans MT&quot;, Calibri, sans-serif">Event</text><text class="caption node" text-anchor="middle" alignment-baseline="central" x="-2860.962077110985" y="938.131207682287" fill="rgb(51, 51, 51)" font-size="50px" font-family="&quot;Gill Sans&quot;, &quot;Gill Sans MT&quot;, Calibri, sans-serif">Registration</text><text class="caption node" text-anchor="middle" alignment-baseline="central" x="-2860.962077110985" y="988.131207682287" fill="rgb(51, 51, 51)" font-size="50px" font-family="&quot;Gill Sans&quot;, &quot;Gill Sans MT&quot;, Calibri, sans-serif">Mechanism</text></g><g class="caption"><text class="caption node" text-anchor="middle" alignment-baseline="central" x="-2860.962077110985" y="1514.835878285428" fill="rgb(51, 51, 51)" font-size="50px" font-family="&quot;Gill Sans&quot;, &quot;Gill Sans MT&quot;, Calibri, sans-serif">Sysmon</text><text class="caption node" text-anchor="middle" alignment-baseline="central" x="-2860.962077110985" y="1564.835878285428" fill="rgb(51, 51, 51)" font-size="50px" font-family="&quot;Gill Sans&quot;, &quot;Gill Sans MT&quot;, Calibri, sans-serif">Driver</text></g><g class="caption"><text class="caption node" text-anchor="middle" alignment-baseline="central" x="-2860.962077110985" y="2178.791159667966" fill="rgb(51, 51, 51)" font-size="50px" font-family="&quot;Gill Sans&quot;, &quot;Gill Sans MT&quot;, Calibri, sans-serif">Input/Output</text><text class="caption node" text-anchor="middle" alignment-baseline="central" x="-2860.962077110985" y="2228.791159667966" fill="rgb(51, 51, 51)" font-size="50px" font-family="&quot;Gill Sans&quot;, &quot;Gill Sans MT&quot;, Calibri, sans-serif">Control</text><text class="caption node" text-anchor="middle" alignment-baseline="central" x="-2860.962077110985" y="2278.791159667966" fill="rgb(51, 51, 51)" font-size="50px" font-family="&quot;Gill Sans&quot;, &quot;Gill Sans MT&quot;, Calibri, sans-serif">Interface</text></g><g class="caption"><text class="caption node" text-anchor="middle" alignment-baseline="central" x="-1263.1325781250027" y="2178.791159667966" fill="rgb(51, 51, 51)" font-size="50px" font-family="&quot;Gill Sans&quot;, &quot;Gill Sans MT&quot;, Calibri, sans-serif">Sysmon</text><text class="caption node" text-anchor="middle" alignment-baseline="central" x="-1263.1325781250027" y="2228.791159667966" fill="rgb(51, 51, 51)" font-size="50px" font-family="&quot;Gill Sans&quot;, &quot;Gill Sans MT&quot;, Calibri, sans-serif">Service</text><text class="caption node" text-anchor="middle" alignment-baseline="central" x="-1263.1325781250027" y="2278.791159667966" fill="rgb(51, 51, 51)" font-size="50px" font-family="&quot;Gill Sans&quot;, &quot;Gill Sans MT&quot;, Calibri, sans-serif">Binary</text></g><g class="caption"><text class="caption node" text-anchor="middle" alignment-baseline="central" x="-1263.1325781250027" y="2949.059047851567" fill="rgb(51, 51, 51)" font-size="50px" font-family="&quot;Gill Sans&quot;, &quot;Gill Sans MT&quot;, Calibri, sans-serif">Sysmon</text><text class="caption node" text-anchor="middle" alignment-baseline="central" x="-1263.1325781250027" y="2999.059047851567" fill="rgb(51, 51, 51)" font-size="50px" font-family="&quot;Gill Sans&quot;, &quot;Gill Sans MT&quot;, Calibri, sans-serif">Event ID</text><text class="caption node" text-anchor="middle" alignment-baseline="central" x="-1263.1325781250027" y="3049.059047851567" fill="rgb(51, 51, 51)" font-size="50px" font-family="&quot;Gill Sans&quot;, &quot;Gill Sans MT&quot;, Calibri, sans-serif">1</text></g></g><g class="layer properties"><g class="speech-bubble node-speech-bubble" transform="translate(-3956.6499513253407,938.131207682287) "><path class="speech-bubble-outline" transform="scale(-1,1) " d="M 0 0 L 20 -10 L 20 -75 A 10 10 0 0 1 30 -85 L 717.20703125 -85 A 10 10 0 0 1 727.20703125 -75 L 727.20703125 75 A 10 10 0 0 1 717.20703125 85 L 30 85 A 10 10 0 0 1 20 75 L 20 10 Z" fill="rgb(255, 255, 255)" stroke="rgb(0, 0, 0)" stroke-width="3px"/><text class="speech-bubble-content property-key" x="-563.69140625" y="-50" alignment-baseline="central" text-anchor="end" font-size="50px" font-family="&quot;Gill Sans&quot;, &quot;Gill Sans MT&quot;, Calibri, sans-serif" xml:space="preserve">API(1): </text><text class="speech-bubble-content property-key" x="-563.69140625" y="0" alignment-baseline="central" text-anchor="end" font-size="50px" font-family="&quot;Gill Sans&quot;, &quot;Gill Sans MT&quot;, Calibri, sans-serif" xml:space="preserve">API(2): </text><text class="speech-bubble-content property-key" x="-563.69140625" y="50" alignment-baseline="central" text-anchor="end" font-size="50px" font-family="&quot;Gill Sans&quot;, &quot;Gill Sans MT&quot;, Calibri, sans-serif" xml:space="preserve">API(3): </text><text class="speech-bubble-content property-value" x="-563.69140625" y="-50" alignment-baseline="central" font-size="50px" font-family="&quot;Gill Sans&quot;, &quot;Gill Sans MT&quot;, Calibri, sans-serif">CreateProcess</text><text class="speech-bubble-content property-value" x="-563.69140625" y="0" alignment-baseline="central" font-size="50px" font-family="&quot;Gill Sans&quot;, &quot;Gill Sans MT&quot;, Calibri, sans-serif">CreateProcessAsUser</text><text class="speech-bubble-content property-value" x="-563.69140625" y="50" alignment-baseline="central" font-size="50px" font-family="&quot;Gill Sans&quot;, &quot;Gill Sans MT&quot;, Calibri, sans-serif">CreateProcessWithToken</text></g><g class="speech-bubble node-speech-bubble" transform="translate(-2748.972761605264,826.1418921765664) "><path class="speech-bubble-outline" transform="scale(1,-1) " d="M 0 0 L 30 20 L 3164.4482421875 20 A 10 10 0 0 1 3174.4482421875 30 L 3174.4482421875 130 A 10 10 0 0 1 3164.4482421875 140 L 30 140 A 10 10 0 0 1 20 130 L 20 30 Z" fill="rgb(255, 255, 255)" stroke="rgb(0, 0, 0)" stroke-width="3px"/><text class="speech-bubble-content property-key" x="279.8291015625" y="-105" alignment-baseline="central" text-anchor="end" font-size="50px" font-family="&quot;Gill Sans&quot;, &quot;Gill Sans MT&quot;, Calibri, sans-serif" xml:space="preserve">Mechanism: </text><text class="speech-bubble-content property-key" x="279.8291015625" y="-55" alignment-baseline="central" text-anchor="end" font-size="50px" font-family="&quot;Gill Sans&quot;, &quot;Gill Sans MT&quot;, Calibri, sans-serif" xml:space="preserve">Function: </text><text class="speech-bubble-content property-value" x="279.8291015625" y="-105" alignment-baseline="central" font-size="50px" font-family="&quot;Gill Sans&quot;, &quot;Gill Sans MT&quot;, Calibri, sans-serif">PsSetCreateProcessNotifyRoutine</text><text class="speech-bubble-content property-value" x="279.8291015625" y="-55" alignment-baseline="central" font-size="50px" font-family="&quot;Gill Sans&quot;, &quot;Gill Sans MT&quot;, Calibri, sans-serif">routine adds a driver-supplied callback routine to, or removes it from, a list of routines to be called whenever a process is created or deleted.</text></g><g class="speech-bubble relationship-speech-bubble" transform="translate(-2055.298564528294,2228.791159667966) "><path class="speech-bubble-outline" transform="scale(1,1) " d="M 0 0 L -10 20 L -463.4765625 20 A 10 10 0 0 0 -473.4765625 30 L -473.4765625 80 A 10 10 0 0 0 -463.4765625 90 L 463.4765625 90 A 10 10 0 0 0 473.4765625 80 L 473.4765625 30 A 10 10 0 0 0 463.4765625 20 L 10 20 Z" fill="rgb(255, 255, 255)" stroke="rgb(0, 0, 0)" stroke-width="3px"/><text class="speech-bubble-content property-key" x="-200.0732421875" y="55" alignment-baseline="central" text-anchor="end" font-size="50px" font-family="&quot;Gill Sans&quot;, &quot;Gill Sans MT&quot;, Calibri, sans-serif" xml:space="preserve">Description: </text><text class="speech-bubble-content property-value" x="-200.0732421875" y="55" alignment-baseline="central" font-size="50px" font-family="&quot;Gill Sans&quot;, &quot;Gill Sans MT&quot;, Calibri, sans-serif">Pulls the queued event data back</text></g></g><g class="layer overlay"><circle class="node overlay" r="78.89078140343551" stroke="none" fill="rgba(255, 255, 255, 0)" cx="-3881.759169921905" cy="938.131207682287"/><circle class="node overlay" r="162.37680882906966" stroke="none" fill="rgba(255, 255, 255, 0)" cx="-2860.962077110985" cy="938.131207682287"/><circle class="node overlay" r="130.30320022424445" stroke="none" fill="rgba(255, 255, 255, 0)" cx="-2860.962077110985" cy="1539.835878285428"/><circle class="node overlay" r="206.40897493085106" stroke="none" fill="rgba(255, 255, 255, 0)" cx="-2860.962077110985" cy="2228.791159667966"/><circle class="node overlay" r="160.91144875145068" stroke="none" fill="rgba(255, 255, 255, 0)" cx="-1263.1325781250027" cy="2228.791159667966"/><circle class="node overlay" r="160.91144875145068" stroke="none" fill="rgba(255, 255, 255, 0)" cx="-1263.1325781250027" cy="2999.059047851567"/><circle class="node ring" r="83.89078140343551" fill="none" stroke="rgba(255, 255, 255, 0)" stroke-width="10px" cx="-3881.759169921905" cy="938.131207682287"/><circle class="node ring" r="167.37680882906966" fill="none" stroke="rgba(255, 255, 255, 0)" stroke-width="10px" cx="-2860.962077110985" cy="938.131207682287"/><circle class="node ring" r="135.30320022424445" fill="none" stroke="rgba(255, 255, 255, 0)" stroke-width="10px" cx="-2860.962077110985" cy="1539.835878285428"/><circle class="node ring" r="211.40897493085106" fill="none" stroke="rgba(255, 255, 255, 0)" stroke-width="10px" cx="-2860.962077110985" cy="2228.791159667966"/><circle class="node ring" r="165.91144875145068" fill="none" stroke="rgba(255, 255, 255, 0)" stroke-width="10px" cx="-1263.1325781250027" cy="2228.791159667966"/><circle class="node ring" r="165.91144875145068" fill="none" stroke="rgba(255, 255, 255, 0)" stroke-width="10px" cx="-1263.1325781250027" cy="2999.059047851567"/><path class="relationship overlay" fill="rgba(255, 255, 255, 0)" stroke="rgba(255, 255, 255, 0)" stroke-width="10px" transform="translate(-2860.962077110985,1539.835878285428) rotate(-90)" d="M 141.30320022424445 4 L 396.32786177407127 4 L 396.32786177407127 16 L 428.32786177407127 0 L 396.32786177407127 -16 L 396.32786177407127 -4 L 141.30320022424445 -4 Z"/><path class="relationship overlay" fill="rgba(255, 255, 255, 0)" stroke="rgba(255, 255, 255, 0)" stroke-width="10px" transform="translate(-2860.962077110985,2228.791159667966) rotate(-90)" d="M 217.40897493085106 4 L 515.6520811582936 4 L 515.6520811582936 16 L 547.6520811582936 0 L 515.6520811582936 -16 L 515.6520811582936 -4 L 217.40897493085106 -4 Z"/><path class="relationship overlay" fill="rgba(255, 255, 255, 0)" stroke="rgba(255, 255, 255, 0)" stroke-width="10px" transform="translate(-2860.962077110985,2228.791159667966) rotate(0)" d="M 217.40897493085106 4 L 1393.9180502345314 4 L 1393.9180502345314 16 L 1425.9180502345314 0 L 1393.9180502345314 -16 L 1393.9180502345314 -4 L 217.40897493085106 -4 Z"/><path class="relationship overlay" fill="rgba(255, 255, 255, 0)" stroke="rgba(255, 255, 255, 0)" stroke-width="10px" transform="translate(-1263.1325781250027,2228.791159667966) rotate(90)" d="M 171.91144875145068 4 L 566.35643943215 4 L 566.35643943215 16 L 598.35643943215 0 L 566.35643943215 -16 L 566.35643943215 -4 L 171.91144875145068 -4 Z"/><path class="relationship overlay" fill="rgba(255, 255, 255, 0)" stroke="rgba(255, 255, 255, 0)" stroke-width="10px" transform="translate(-2860.962077110985,938.131207682287) rotate(180)" d="M 173.37680882906966 4 L 898.9063114074847 4 L 898.9063114074847 16 L 930.9063114074847 0 L 898.9063114074847 -16 L 898.9063114074847 -4 L 173.37680882906966 -4 Z"/></g></svg>